#!OML:ASF F:\VICON\USERDATA\INSTALL\rory3\rory3.ASF
:FULLY-SPECIFIED
:DEGREES
313
root -2.33532 17.0341 0.634849 4.84965 7.47587 3.11039
lowerback 17.6042 0.188091 -0.704767
upperback 7.22743 0.279386 2.94103
thorax -2.14843 0.101961 3.45279
lowerneck -17.0451 -2.19571 -9.90401
upperneck 19.0141 -1.45665 4.92374
head 8.88396 -0.868698 3.1398
rclavicle 2.38542e-014 -1.27222e-014
rhumerus -14.3343 12.4741 -83.5792
rradius 40.417
rwrist 18.5597
rhand -15.9122 1.98908
rfingers 7.12502
rthumb 10.2849 -27.7395
lclavicle 2.38542e-014 -1.27222e-014
lhumerus -20.8886 -18.4975 95.6967
lradius 45.3701
lwrist -7.55071
lhand -13.223 32.4633
lfingers 7.12502
lthumb 12.8782 62.0459
rfemur -26.6531 -6.76381 15.4612
rtibia 50.9675
rfoot -24.9187 -4.34827
rtoes -7.5928
lfemur -35.19 0.840074 -16.1495
ltibia 32.1398
lfoot -3.81774 6.68338
ltoes -22.8793
314
root -2.34698 17.0699 0.611875 4.56365 7.50912 3.04332
lowerback 17.1628 -0.034126 -0.463907
upperback 7.1138 0.026719 3.00556
thorax -2.02278 -0.0208373 3.4278
lowerneck -17.3482 -2.20709 -9.78252
upperneck 18.8893 -1.48637 4.98445
head 8.8968 -0.862473 3.13529
rclavicle -3.02153e-014 6.36111e-014
rhumerus -14.5616 11.8122 -83.5301
rradius 40.5331
rwrist 17.1966
rhand -16.7589 2.02142
rfingers 7.12502
rthumb 9.46794 -27.7459
lclavicle -3.02153e-014 6.36111e-014
lhumerus -20.93 -17.7585 95.5174
lradius 44.785
lwrist -7.54361
lhand -12.8695 32.1434
lfingers 7.12502
lthumb 13.219 61.7042
rfemur -26.1597 -6.61365 15.5499
rtibia 50.4168
rfoot -24.6896 -4.52184
rtoes -7.37642
lfemur -34.7956 0.887061 -16.032
ltibia 32.8213
lfoot -3.85028 6.74505
ltoes -24.7087
315
root -2.35854 17.0999 0.581827 4.28949 7.44219 3.00919
lowerback 16.8628 -0.212808 -0.346981
upperback 6.90768 -0.187112 3.07271
thorax -2.07125 -0.12432 3.46917
lowerneck -17.3065 -2.15893 -9.65165
upperneck 18.6412 -1.47723 5.07457
head 8.8019 -0.835529 3.14187
rclavicle 2.38542e-014 -1.27222e-014
rhumerus -14.9055 11.4166 -83.4624
rradius 40.7145
rwrist 15.5587
rhand -17.4083 1.67044
rfingers 7.12502
rthumb 8.84133 -28.1243
lclavicle 2.38542e-014 -1.27222e-014
lhumerus -21.0887 -17.1444 95.3617
lradius 44.2436
lwrist -7.43894
lhand -12.5334 32.1015
lfingers 7.12502
lthumb 13.5429 61.641
rfemur -25.7121 -6.42273 15.5881
rtibia 49.8327
rfoot -24.3274 -4.61439
rtoes -7.06943
lfemur -34.4528 0.980753 -15.9368
ltibia 33.7257
lfoot -4.21084 6.56945
ltoes -24.3889
316
root -2.36895 17.1321 0.546101 3.99247 7.32449 3.09102
lowerback 16.6547 -0.365273 -0.366062
upperback 6.70266 -0.388055 3.10831
thorax -2.16618 -0.222703 3.55274
lowerneck -17.2931 -2.12214 -9.52628
upperneck 18.4389 -1.48465 5.189
head 8.72957 -0.814977 3.15643
rclavicle 1.82882e-014 -1.27222e-014
rhumerus -15.2171 10.9181 -83.2968
rradius 40.9494
rwrist 14.5778
rhand -17.8822 1.69337
rfingers 7.12502
rthumb 8.38402 -28.1202
lclavicle 1.82882e-014 -1.27222e-014
lhumerus -21.3679 -16.4416 95.2652
lradius 43.7944
lwrist -7.57029
lhand -12.0836 32.0593
lfingers 7.12502
lthumb 13.9764 61.5695
rfemur -25.257 -6.26227 15.4851
rtibia 49.2492
rfoot -23.943 -4.67747
rtoes -6.49782
lfemur -34.1151 1.11829 -15.9782
ltibia 34.8357
lfoot -4.59018 6.02272
ltoes -23.9611
317
root -2.37802 17.1662 0.514489 3.72047 7.18169 3.13365
lowerback 16.2689 -0.4969 -0.366787
upperback 6.60433 -0.563407 3.16238
thorax -2.05518 -0.311342 3.6357
lowerneck -17.5179 -2.13134 -9.41138
upperneck 18.2664 -1.52662 5.29346
head 8.71333 -0.810599 3.16578
rclavicle 2.10712e-014 -2.22639e-014
rhumerus -15.4094 10.2885 -83.03
rradius 41.2706
rwrist 14.1981
rhand -18.305 2.08791
rfingers 7.12502
rthumb 7.97597 -27.7416
lclavicle 2.10712e-014 -2.22639e-014
lhumerus -21.5365 -15.8918 95.155
lradius 43.4039
lwrist -7.75299
lhand -11.7526 31.8984
lfingers 7.12502
lthumb 14.2954 61.3863
rfemur -24.8166 -6.07582 15.4367
rtibia 48.6653
rfoot -23.6825 -4.77182
rtoes -5.60172
lfemur -33.7893 1.30239 -15.9747
ltibia 36.114
lfoot -5.06127 5.31565
ltoes -24.5589
318
root -2.3877 17.1949 0.484707 3.42383 6.96428 3.11681
lowerback 15.9419 -0.611089 -0.392567
upperback 6.45945 -0.717586 3.23925
thorax -2.02401 -0.389074 3.75364
lowerneck -17.5074 -2.09026 -9.29874
upperneck 18.004 -1.5215 5.40466
head 8.62058 -0.784945 3.1818
rclavicle 2.5842e-014 4.77083e-015
rhumerus -15.638 9.83549 -82.8294
rradius 41.5246
rwrist 13.9798
rhand -18.5255 2.33139
rfingers 7.12502
rthumb 7.76318 -27.5061
lclavicle 2.5842e-014 4.77083e-015
lhumerus -21.8462 -15.4682 95.0205
lradius 43.0707
lwrist -7.76795
lhand -11.6326 31.4618
lfingers 7.12502
lthumb 14.411 60.9415
rfemur -24.3607 -5.79076 15.449
rtibia 48.0892
rfoot -23.5254 -4.71833
rtoes -3.91499
lfemur -33.4083 1.51934 -15.8711
ltibia 37.5147
lfoot -5.57839 4.54615
ltoes -25.03
319
root -2.39619 17.2241 0.452996 3.07306 6.74169 3.08565
lowerback 15.7683 -0.723717 -0.392266
upperback 6.28894 -0.862956 3.31621
thorax -2.10102 -0.460501 3.85824
lowerneck -17.4829 -2.04489 -9.12768
upperneck 17.7709 -1.51916 5.47736
head 8.53511 -0.761555 3.17494
rclavicle -3.97569e-016 3.02153e-014
rhumerus -15.9216 9.59351 -82.5966
rradius 41.9704
rwrist 13.2272
rhand -18.2066 1.99374
rfingers 7.12502
rthumb 8.07096 -27.8321
lclavicle -3.97569e-016 3.02153e-014
lhumerus -22.1134 -15.015 94.8924
lradius 42.6866
lwrist -7.80597
lhand -11.4657 31.1632
lfingers 7.12502
lthumb 14.5718 60.6314
rfemur -23.8641 -5.53858 15.482
rtibia 47.5043
rfoot -23.1535 -4.88739
rtoes -3.98994
lfemur -33.0097 1.71133 -15.7399
ltibia 39.0111
lfoot -6.08024 3.65537
ltoes -24.8949
320
root -2.40115 17.2551 0.42028 2.78046 6.48838 3.13381
lowerback 15.5404 -0.810869 -0.44665
upperback 6.14622 -0.984282 3.39643
thorax -2.11972 -0.521559 3.99127
lowerneck -17.731 -2.0816 -9.00876
upperneck 17.7401 -1.58326 5.49976
head 8.57281 -0.778104 3.15499
rclavicle -2.62396e-014 -3.18055e-015
rhumerus -16.1894 9.46628 -82.2449
rradius 42.5813
rwrist 11.9556
rhand -17.9603 1.25258
rfingers 7.12502
rthumb 8.30862 -28.564
lclavicle -2.62396e-014 -3.18055e-015
lhumerus -22.3018 -14.4782 94.7954
lradius 42.342
lwrist -8.12226
lhand -11.1159 30.7895
lfingers 7.12502
lthumb 14.9089 60.2329
rfemur -23.4255 -5.32136 15.4111
rtibia 46.9219
rfoot -22.7007 -4.96976
rtoes -4.05943
lfemur -32.637 1.88041 -15.7058
ltibia 40.5904
lfoot -6.57094 2.73103
ltoes -24.893
321
root -2.40395 17.2852 0.386138 2.57956 6.15316 3.18422
lowerback 15.2492 -0.857318 -0.489558
upperback 5.97366 -1.05138 3.46723
thorax -2.1399 -0.555087 4.09692
lowerneck -17.8156 -2.13546 -8.96293
upperneck 17.5864 -1.66709 5.53761
head 8.54209 -0.807554 3.14756
rclavicle -3.26007e-014 -1.11319e-014
rhumerus -16.5213 9.18833 -81.884
rradius 43.0939
rwrist 11.025
rhand -18.3403 1.28371
rfingers 7.12502
rthumb 7.94195 -28.5471
lclavicle -3.26007e-014 -1.11319e-014
lhumerus -22.5937 -13.9744 94.7169
lradius 42.1041
lwrist -8.43497
lhand -11.0465 30.1804
lfingers 7.12502
lthumb 14.9757 59.6189
rfemur -23.1037 -5.09859 15.326
rtibia 46.3514
rfoot -22.2937 -4.79009
rtoes -2.83751
lfemur -32.2761 2.06264 -15.6732
ltibia 42.2362
lfoot -6.98578 2.01082
ltoes -24.3083
322
root -2.40434 17.3127 0.351563 2.32475 5.79967 3.15237
lowerback 15.0307 -0.891726 -0.409729
upperback 5.8124 -1.0847 3.52764
thorax -2.19158 -0.569852 4.11749
lowerneck -17.3693 -2.18836 -8.76011
upperneck 16.8925 -1.79769 5.43349
head 8.23626 -0.86311 3.05106
rclavicle -4.45278e-014 4.29375e-014
rhumerus -16.864 8.97482 -81.5493
rradius 43.5427
rwrist 9.8927
rhand -18.5956 1.45599
rfingers 7.12502
rthumb 7.69547 -28.384
lclavicle -4.45278e-014 4.29375e-014
lhumerus -22.8205 -13.4202 94.6028
lradius 41.8818
lwrist -8.73323
lhand -11.0195 29.4472
lfingers 7.12502
lthumb 15.0017 58.8838
rfemur -22.7514 -4.86317 15.3244
rtibia 45.8079
rfoot -21.8264 -4.63242
rtoes -2.10008
lfemur -31.8172 2.24906 -15.5511
ltibia 43.9166
lfoot -7.34957 1.47656
ltoes -23.7352
323
root -2.40531 17.3337 0.317626 1.9997 5.42032 3.20624
lowerback 14.9067 -0.908463 -0.488312
upperback 5.70013 -1.11689 3.5792
thorax -2.23845 -0.586206 4.22065
lowerneck -16.6676 -2.24795 -8.28152
upperneck 15.8835 -1.95569 5.00047
head 7.77973 -0.947475 2.79386
rclavicle -1.19271e-015 -1.43125e-014
rhumerus -17.1342 8.86297 -81.2225
rradius 44.0698
rwrist 8.54279
rhand -18.164 0.637314
rfingers 7.12502
rthumb 8.11205 -29.187
lclavicle -1.19271e-015 -1.43125e-014
lhumerus -22.9491 -12.7901 94.4277
lradius 41.7119
lwrist -8.9109
lhand -10.8058 28.8274
lfingers 7.12502
lthumb 15.2076 58.2485
rfemur -22.352 -4.57224 15.2271
rtibia 45.3112
rfoot -21.383 -4.62577
rtoes -2.27065
lfemur -31.2061 2.45267 -15.5167
ltibia 45.5895
lfoot -7.74492 1.09394
ltoes -23.2207
324
root -2.40431 17.355 0.286005 1.69556 5.02686 3.33843
lowerback 14.7235 -0.936018 -0.668618
upperback 5.64098 -1.17987 3.61941
thorax -2.19293 -0.620562 4.37212
lowerneck -16.866 -2.3221 -8.16374
upperneck 15.7597 -2.0952 5.14279
head 7.78294 -0.989125 2.80442
rclavicle 1.90833e-014 -3.65764e-014
rhumerus -17.3522 8.45794 -80.8902
rradius 44.9386
rwrist 7.99853
rhand -17.203 -1.14956
rfingers 7.12502
rthumb 9.03949 -30.9359
lclavicle 1.90833e-014 -3.65764e-014
lhumerus -23.0607 -12.2105 94.1999
lradius 41.6689
lwrist -8.79095
lhand -10.5172 28.5767
lfingers 7.12502
lthumb 15.4855 57.9765
rfemur -21.9512 -4.24669 15.0267
rtibia 44.8275
rfoot -21.0345 -4.51061
rtoes -1.6438
lfemur -30.5238 2.68837 -15.5898
ltibia 47.2297
lfoot -8.08301 0.76714
ltoes -23.2278
